<svg version="1.2" xmlns="http://www.w3.org/2000/svg" viewBox="0 0 220 233" width="40" height="40">
	<title>touchicon-orig-svg</title>
	<style>
		.s0 { opacity: .9;fill: #79bade } 
		.s1 { opacity: .8;fill: #79bade } 
		.s2 { opacity: 1;fill: #79bade } 
	</style>
	<g id="Layer">
		<path id="Layer" fill-rule="evenodd" class="s0" d="m111.5-0.5q3 0 6 0 10.4 5 5.5 16-7.9 7.7-16.5 0.5-22.9-0.4-43 11 24-2.2 12.5 19.5-2.8 2.8-5.5 5.5 1.1 1.4 3 1.5 23.5-9.6 36.5 12 3.3 10.4-6.5 14.5-12.6 2.2-24 8-4.8 7.1-11 13-7.5 1.5-15 1.5 4.7 10 11.5 19 10.1 17.8-10 20-27.6-6.5-36-34-3.8-3.8-8.5-3-5.2 45.8 25.5 80 1.7-6.7 6-12 7-6 14-12 3.1-7.7 7-15 5.8-6.3 13.5-2.5 9 11 20 20 10.1 2 20 4.5 3.9 4.3 0 8.5-11-0.9-22-3-6.3-2.4-11-7-6.3-7.3-12.5-14.5-3.6 8.7-8 17-8.1 5.8-15 13-5.4 8.3 1.5 15.5 25 18.5 56 20 9.6-11.2 18.5 0.5 3 11.2-7.5 15-2 0-4 0-3.5-1.3-6-4.5-76.9-7.9-102.5-80.5-2.8-11.1-4.5-22 0-9 0-18 7.5-65.3 67-93.5 18.8-7.6 39-9 2.1-3.8 6-5.5zm-99 92q0.5 1 1 2 7.6 1.5 13 7 4.9 17 19 27.5 5.9 4.8 13 2.5-8-11-14.5-23-3.6-12.1 8.5-14.5 5.5-0.5 11-1 4.9-8.4 13-14 12.1-5.2 25-8-3.7-6.7-11-9-8.8-0.8-17 2.5-15.8-1.1-12.5-16 5.1-4.3 8.5-10-10.3 0.3-21-1-26.6 21.7-36 55z"/>
	</g>
	<g id="Layer">
		<path id="Layer" fill-rule="evenodd" class="s0" d="m146.5 16.5q21.2-1.5 15.5 19-2 2.3-4.5 4-1.2 25.5-1.5 51-0.4 1.7-1.5 3-28.9 1.7-58 0.5-4.4-5.2 1-9 24.5-0.7 49-0.5 0.5-22.5-1-45-9.2-7.1-4.5-18 2.6-2.9 5.5-5z"/>
	</g>
	<g id="Layer">
		<path id="Layer" fill-rule="evenodd" class="s0" d="m86.5 21.5q3.1-0.3 6 1 1.7 10.5 0.5 21-4 4-8 0-1-10 0-20 1.1-0.8 1.5-2z"/>
	</g>
	<g id="Layer">
		<path id="Layer" fill-rule="evenodd" class="s1" d="m98.5 21.5q3-0.2 6 0.5 0.9 1.1 1.5 2.5 1 12 0 24-3.8 5.4-9 1-1-13 0-26 1.1-0.8 1.5-2z"/>
	</g>
	<g id="Layer">
		<path id="Layer" fill-rule="evenodd" class="s0" d="m111.5 21.5q3-0.2 6 0.5 0.9 1.1 1.5 2.5 1 17.5 0 35-3.8 5.4-9 1-1-18.5 0-37 1.1-0.8 1.5-2z"/>
	</g>
	<g id="Layer">
		<path id="Layer" fill-rule="evenodd" class="s2" d="m196.5 65.5q21.2-2.6 16.5 18-2 3.3-5.5 5-1.2 12-1.5 24-0.8 0.8-1.5 1.5-62 1-124 0-3.3-3.6-1-8 59-0.8 118-0.5 0.5-8.6-1-17-10.9-7.3-4.5-19 2.5-1.8 4.5-4z"/>
	</g>
	<g id="Layer">
		<path id="Layer" fill-rule="evenodd" class="s2" d="m219.5 125.5q0 5 0 10-7 10.5-19 5.5-3.1-2.6-5-6-59-0.5-118-1-4-4 0-8 59.5-0.3 119-1.5 7.1-9.2 18-4.5 2.9 2.6 5 5.5z"/>
	</g>
	<g id="Layer">
		<path id="Layer" fill-rule="evenodd" class="s0" d="m94.5 146.5q33-0.5 66 1 1.5 13.4 1 27 5.6 0.5 11-1 6.5-10.4 18-5.5 12.4 12.4-2 22-5 1-10 0-3.2-1.5-5-4.5-9-1.2-18-1.5-1.4-0.6-2.5-1.5-0.7-13.5-0.5-27-29 0.3-58-0.5-3.8-4.2 0-8.5z"/>
	</g>
	<g id="Layer">
		<path id="Layer" fill-rule="evenodd" class="s1" d="m83.5 179.5q12.5-0.2 25 0.5 6 4.6 0 9-12.5 1-25 0-5.8-4.7 0-9.5z"/>
	</g>
	<g id="Layer">
		<path id="Layer" fill-rule="evenodd" class="s0" d="m96.5 191.5q11.5-0.2 23 0.5 4 4 0 8-11.5 1-23 0-3.7-4.1 0-8.5z"/>
	</g>
	<g id="Layer">
		<path id="Layer" fill-rule="evenodd" class="s0" d="m86.5 202.5q10-0.2 20 0.5 7.1 3.8 1 9-11 1-22 0-4.3-5.4 1-9.5z"/>
	</g>
</svg>