<svg version="1.2" xmlns="http://www.w3.org/2000/svg" viewBox="0 0 29 36" width="32" height="40">
	<title>תמונה1-svg</title>
	<defs>
		<clipPath clipPathUnits="userSpaceOnUse" id="cp1">
			<path d="m0 0h29v36h-29z"/>
		</clipPath>
		<clipPath clipPathUnits="userSpaceOnUse" id="cp2">
			<path d="m1 1h27v34h-27z"/>
		</clipPath>
		<clipPath clipPathUnits="userSpaceOnUse" id="cp3">
			<path d="m1 1h27v34h-27z"/>
		</clipPath>
	</defs>
	<style>
		.s0 { fill: #2daae9 } 
		.s1 { fill: #e43f64 } 
		.s2 { fill: #bcbcbc } 
	</style>
	<g id="Clip-Path" clip-path="url(#cp1)">
		<g id="Layer">
			<g id="Clip-Path" clip-path="url(#cp2)">
				<g id="Layer">
					<g id="Clip-Path" clip-path="url(#cp3)">
						<g id="Layer">
							<g id="Layer">
								<path id="Layer" class="s0" d="m16.9 5.8v-4.3h10.9v24.4h-10.9v-4.2h6.4v-15.9z"/>
								<path id="Layer" class="s1" d="m11.9 5.8v-4.3h-10.9v24.4h5.5l5.4 8.9v-13.1h-6.4v-15.9z"/>
								<path id="Layer" class="s2" d="m58.9 2.7l0.1-0.3 1-1h-5.4l-7.8 9.2-7.7-9.2h-5.4l1 1.1 9.4 11.2-9.4 11.4-1 1h5.4l7.7-9.2 7.8 9.2h5.4l-0.9-1-9.6-11.4z"/>
								<path id="Layer" fill-rule="evenodd" class="s2" d="m85.6 2.7c0.9 0.9 1.4 2 1.4 3.3v15.4c0 1.3-0.5 2.4-1.4 3.3-0.8 0.9-1.9 1.4-3.2 1.4h-20.2v-24.7h20.1c1.3 0 2.4 0.5 3.3 1.3zm-19.2 3.3v15.4c0 0.1 0 0.2 0.1 0.3 0.1 0.1 0.2 0.1 0.3 0.1h15.4c0.1 0 0.2 0 0.3-0.1 0.1-0.1 0.1-0.2 0.1-0.3v-15.4c0-0.1 0-0.2-0.1-0.3-0.1-0.1-0.2-0.1-0.3-0.1h-15.5c-0.1 0-0.2 0-0.3 0.1-0.1 0.1-0.1 0.2-0.1 0.3z"/>
								<path id="Layer" fill-rule="evenodd" class="s2" d="m114.1 6v20.2h-4.1v-8.5h-16.4v8.5h-4.1v-20.1c0-1.3 0.5-2.4 1.4-3.3 0.9-0.9 2-1.4 3.3-1.4h15.5c1.2 0 2.3 0.5 3.2 1.4 0.9 0.9 1.4 2 1.2 3.2zm-20.4 7.4h16.2v-7.4c0-0.1 0-0.2-0.1-0.3-0.1-0.1-0.1-0.1-0.2-0.1h-15.5c-0.1 0-0.2 0-0.3 0.1-0.1 0.1-0.1 0.2-0.1 0.3z"/>
							</g>
						</g>
					</g>
				</g>
			</g>
		</g>
	</g>
</svg>